<svg xmlns="http://www.w3.org/2000/svg" xmlns:xlink="http://www.w3.org/1999/xlink" version="1.1"  x="0px" y="0px" width="32" height="32" viewBox="0 0 32 32" style="enable-background:new 0 0 32 32;" xml:space="preserve" viewbox="0 0 32 32">
<path d="M25,22c0-1.1-0.9-2-2-2s-2,0.9-2,2s0.9,2,2,2S25,23.1,25,22z M22,22c0-0.55,0.45-1,1-1s1,0.45,1,1s-0.45,1-1,1  S22,22.55,22,22z M28,20v4c0,1.66-1.34,3-3,3H6c-1.66,0-3-1.34-3-3v-4c0-1.66,1.34-3,3-3h4v1H6c-1.1,0-2,0.9-2,2v4c0,1.1,0.9,2,2,2  h19c1.1,0,2-0.9,2-2v-4c0-1.1-0.9-2-2-2h-4v-1h4C26.66,17,28,18.34,28,20z M15.5,19.22l-6.66-6.66l0.71-0.7L15,17.3V2h1v15.3  l5.45-5.44l0.71,0.7L15.5,19.22z"></path>
</svg>