<svg xmlns="http://www.w3.org/2000/svg" xmlns:xlink="http://www.w3.org/1999/xlink" version="1.1"  x="0px" y="0px" width="32" height="32" viewBox="0 0 32 32" style="enable-background:new 0 0 32 32;" xml:space="preserve" viewbox="0 0 32 32">
<path d="M14,10.5L17,8v2.094c2.832,0.472,5,2.936,5,5.906c0,2.42-1.44,4.51-3.5,5.45l-0.87-0.72C19.59,20.05,21,18.19,21,16  c0-2.419-1.719-4.416-4-4.873V13L14,10.5z M26,7v1v16v1c0,1.206-0.799,3-3,3H9c-1.206,0-3-0.799-3-3v-1V8V7c0-1.206,0.799-3,3-3h14  C24.206,4,26,4.799,26,7z M25,25H7c0,2,2,2,2,2s12,0,14,0S25,25,25,25z M25,8h-8H7c0,3.11,0,12.627,0,16h7h11  C25,20.891,25,11.373,25,8z M25,7c0-2-2-2-2-2S11,5,9,5S7,7,7,7H25z M14,19v1.565c-1.759-0.77-3-2.522-3-4.565  c0-1.93,1.1-3.61,2.71-4.44l-0.82-0.68C11.16,11.92,10,13.83,10,16c0,2.611,1.679,4.814,4,5.633V24l3-2.5L14,19z"></path>
</svg>