<svg xmlns="http://www.w3.org/2000/svg" xmlns:xlink="http://www.w3.org/1999/xlink" version="1.1"  x="0px" y="0px" width="32" height="32" viewBox="0 0 32 32" style="enable-background:new 0 0 32 32;" xml:space="preserve" preserveAspectRatio="none" viewbox="0 0 32 32">
<path d="M12,18h1v1l-1,0.01V18z M12,16h1v-6h-1V16z M30,22c0,0-2,6-8,6c-4.45,0-6.7-3.3-7.56-5H3.42c-0.51,0-0.98-0.28-1.23-0.73  c-0.25-0.439-0.25-0.979,0-1.42l9.06-16.12C11.51,4.28,11.98,4,12.49,4c0.51,0,0.98,0.28,1.24,0.73l6.37,11.32l0.08,0.15  c0.44-0.101,0.91-0.17,1.41-0.181C21.73,16.01,21.86,16,22,16s0.27,0.01,0.41,0.02C28.09,16.28,30,22,30,22z M19,20  c0,1.65,1.35,3,3,3s3-1.35,3-3s-1.35-3-3-3S19,18.35,19,20z M19.19,16.49l-0.15-0.26L12.83,5.19C12.76,5.07,12.63,5,12.5,5  s-0.26,0.07-0.33,0.19L3.05,21.42c-0.07,0.12-0.07,0.271,0,0.39C3.12,21.93,3.24,22,3.38,22H14C14,22,15.36,17.93,19.19,16.49z   M28.93,22c-0.34-0.81-1.399-2.94-3.55-4.14C25.77,18.48,26,19.22,26,20c0,2.21-1.79,4-4,4s-4-1.79-4-4c0-0.79,0.23-1.53,0.63-2.15  c-2.16,1.2-3.22,3.341-3.56,4.15c0.48,1.15,2.43,5,6.93,5S28.45,23.16,28.93,22z"></path>
</svg>