<svg xmlns="http://www.w3.org/2000/svg"  data-name="Layer 1" viewBox="0 0 32 32" preserveAspectRatio="none" width="32" height="32" viewbox="0 0 32 32"><title>Support Icons - Iconshock</title><path d="M16,16a6,6,0,0,0,4.9-2.54H22A1.4,1.4,0,0,0,23.06,13a1.55,1.55,0,0,0,.4-1V8.48H21.8A6,6,0,1,0,16,16Zm6.46-4a.54.54,0,0,1-.12.34.46.46,0,0,1-.34.11h-.53a7.46,7.46,0,0,0,.33-.94h.66ZM16,5a5,5,0,0,1,4.33,7.46h-4v1H19.6A5,5,0,1,1,16,5Zm2.76,12.36L16,20.12l-2.76-2.76A11,11,0,0,0,5,28H27A11,11,0,0,0,18.76,17.36ZM13,18.47l3,3,3-3A10,10,0,0,1,26,27H6.05A10,10,0,0,1,13,18.47Z"></path></svg>