<svg xmlns="http://www.w3.org/2000/svg" xmlns:xlink="http://www.w3.org/1999/xlink" version="1.1"  x="0px" y="0px" width="32" height="32" viewBox="0 0 40 40" enable-background="new 0 0 40 40" xml:space="preserve" preserveAspectRatio="none" viewbox="0 0 32 32">
<g id="55353013_Shape_5_xA0_Clipping_Path_1_">
	<g>
		<path d="M6,20c0-4.161,1.828-7.887,4.712-10.449L7.668,6.912C4.186,10.194,2,14.837,2,20s2.186,9.806,5.668,13.088l3.156-2.735    C7.938,27.793,6,24.109,6,20z M13,20c0-2.413,1.221-4.541,3.079-5.799l-3.093-2.681C10.551,13.54,9,16.588,9,20    c0,3.412,1.551,6.46,3.986,8.479l3.093-2.681C14.221,24.54,13,22.413,13,20z M32.332,6.912l-3.045,2.639    C32.172,12.113,34,15.839,34,20c0,4.109-1.938,7.793-4.824,10.353l3.156,2.735C35.814,29.806,38,25.163,38,20    S35.814,10.194,32.332,6.912z M27.015,11.521l-3.093,2.681C25.779,15.46,27,17.587,27,20s-1.221,4.54-3.078,5.799l3.093,2.681    C29.448,26.46,31,23.412,31,20C31,16.588,29.448,13.54,27.015,11.521z M20,16.004c-2.209,0-4,1.789-4,3.996s1.791,3.996,4,3.996    s4-1.789,4-3.996S22.209,16.004,20,16.004z"></path>
	</g>
</g>
</svg>