<svg xmlns="http://www.w3.org/2000/svg" xmlns:xlink="http://www.w3.org/1999/xlink" version="1.1"  x="0px" y="0px" width="32" height="32" viewBox="0 0 32 32" style="enable-background:new 0 0 32 32;" xml:space="preserve" viewbox="0 0 32 32">
<path d="M26.85,26.15l-6.29-6.301C22.08,18.17,23,15.94,23,13.5C23,8.25,18.75,4,13.5,4S4,8.25,4,13.5S8.25,23,13.5,23  c2.44,0,4.67-0.92,6.35-2.44l6.301,6.29C26.24,26.95,26.37,27,26.5,27s0.26-0.05,0.35-0.15C27.05,26.66,27.05,26.34,26.85,26.15z   M13.5,22C8.81,22,5,18.19,5,13.5C5,8.81,8.81,5,13.5,5c4.69,0,8.5,3.81,8.5,8.5C22,18.19,18.19,22,13.5,22z"></path>
</svg>