<svg xmlns="http://www.w3.org/2000/svg" xmlns:xlink="http://www.w3.org/1999/xlink" version="1.1"  x="0px" y="0px" width="32" height="32" viewBox="0 0 40 40" enable-background="new 0 0 40 40" xml:space="preserve" preserveAspectRatio="none" viewbox="0 0 32 32">
<g id="552834787_Shape_5_xA0_Clipping_Path_1_">
	<g>
		<path d="M34.91,5.638l-1.016-3.832c-0.152-0.577-0.718-0.925-1.262-0.777L3.755,8.856C3.21,9.004,2.893,9.592,3.045,10.168    L4.061,14L34.91,5.638z M30.02,2.781l2.703,2.403l-4.82,1.307L25.2,4.088L30.02,2.781z M20.38,5.395l2.703,2.403l-4.82,1.307    L15.56,6.701L20.38,5.395z M10.739,8.008l2.703,2.403l-4.82,1.307L5.919,9.314L10.739,8.008z M4,15v19.929    C4,35.521,4.458,36,5.023,36h29.954C35.542,36,36,35.521,36,34.929V15H4z M9,16h5l-2,3H7L9,16z M15,24.59    c0,1.264-1.308,1.947-1.308,1.947S15,27.083,15,28.938C15,30.708,14,32,12,32s-3-1-3-1v-2c0,0,1.104,1,2.708,1    C12.5,30,13,29.646,13,29c0-0.813-0.75-1.229-2-1.229V26c1.666-0.287,1.729-1,1.729-1H9v-2h6V24.59z M19,16h5l-2,3h-5L19,16z     M24,32h-6v-1c0,0,0.595-0.636,2.514-2.736C21.603,27.071,22,26.686,22,26c0-0.481-0.362-1-1.157-1c-1.021,0-1.639,0.553-2.205,1    l-0.714-1.749C18.613,23.693,19.538,23,20.843,23C22.818,23,24,24.525,24,26c0,1.764-1.133,2.426-2.469,4H25L24,32z M31,32h-2v-7    l-2,1v-2l2-1h2V32z M32,19h-5l2-3h5L32,19z"></path>
	</g>
</g>
</svg>