<svg version="1.1"  xmlns="http://www.w3.org/2000/svg" xmlns:xlink="http://www.w3.org/1999/xlink" x="0px" y="0px" width="32" height="32" viewBox="0 0 32 32" style="enable-background:new 0 0 32 32;" xml:space="preserve" preserveAspectRatio="none" viewbox="0 0 32 32">
<style type="text/css">

	.st0{fill-rule:evenodd;clip-rule:evenodd;}

</style>
<path class="st0" d="M17,22H6v-1h11V22z M7,26v-3h9v3H7z M8,25h7v-1H8V25z M28,28v1H5v-1h12v-4c0,0,0-3,3-3h0.22
	C20.73,20.11,21,18.91,21,17.5c0-2.75-2.14-3.34-3.08-3.46l-1.14,1.97l0.871,0.5l-0.5,0.87l-0.871-0.5l-6.06-3.5l-0.87-0.5l0.5-0.87
	l0.87,0.5l4-6.93l0.86,0.5l2-3.46l4.34,2.5l-2,3.46l0.86,0.5l-0.44,0.76c3.2,1.01,5.16,4.07,5.16,8.16c0,1.2-0.06,2.22-0.17,3.03
	C25.9,21.13,27,21.52,27,23v5H28z M16.45,6.58l2.6,1.5l1.5-2.59l-2.6-1.5L16.45,6.58z M19.42,9.45l-4.34-2.5l-3.5,6.06l4.34,2.5
	L19.42,9.45z M22,17.5c0,1.36-0.22,2.54-0.67,3.5h2.99c0.12-0.78,0.18-1.79,0.18-3c0-3.71-1.78-6.46-4.68-7.25l-1.36,2.35
	C20.03,13.43,22,14.59,22,17.5z M26,23c0-0.8-0.55-0.99-1.01-1H20c-1.9,0-2,1.67-2,2v4h8V23z"></path>
</svg>