<svg xmlns="http://www.w3.org/2000/svg" xmlns:xlink="http://www.w3.org/1999/xlink" version="1.1"  x="0px" y="0px" width="32" height="32" viewBox="0 0 40 40" enable-background="new 0 0 40 40" xml:space="preserve" preserveAspectRatio="none" viewbox="0 0 32 32">
<g id="55152564_Shape_5_xA0_Clipping_Path_2_">
	<g>
		<path d="M38.717,13.458C38.396,13.059,37.885,13,37.192,13H34v-2.5C34,9.122,32.879,8,31.5,8H15.835    c-0.703,0-0.928-0.281-1.585-1.482C13.604,5.337,12.874,4,10.914,4H4.5C3.122,4,2,5.122,2,6.5v26C2,33.879,3.122,35,4.5,35h27.589    c1.292,0,2.525-1.004,2.808-2.284L38.8,15.015C38.953,14.316,39.045,13.866,38.717,13.458z M4,6.5C4,6.224,4.224,6,4.5,6h6.414    c0.702,0,0.926,0.28,1.581,1.477C13.142,8.66,13.875,10,15.835,10H31.5c0.275,0,0.5,0.224,0.5,0.5V13H11    c-1.292,0-2.525,1.003-2.807,2.285l-3.75,17c-0.065,0.295-0.149,0.488-0.248,0.601C4.079,32.795,4,32.659,4,32.5V6.5z"></path>
	</g>
</g>
</svg>