<svg version="1.1"  xmlns="http://www.w3.org/2000/svg" xmlns:xlink="http://www.w3.org/1999/xlink" x="0px" y="0px" width="32" height="32" viewBox="0 0 32 32" style="enable-background:new 0 0 32 32;" xml:space="preserve" preserveAspectRatio="none" viewbox="0 0 32 32">
<path d="M27,14h-8V5c0-2-2-2-2-2H5C3,3,3,5,3,5v11c0,2,2,2,2,2h8v9c0,2,2,2,2,2h12c2,0,2-2,2-2V16C29,14,27,14,27,14z M13,16v1H5.01
	C4.55,16.99,4,16.81,4,16V5.01C4.01,4.55,4.19,4,5,4h11.99C17.45,4.01,18,4.2,18,5v9h-3.06l-3.48-8.69h-0.92L6.35,15.78l0.93,0.371
	L8.94,12h4.12l0.9,2.24C13,14.78,13,16,13,16z M12.66,11H9.34L11,6.85L12.66,11z M28,26.99C27.99,27.45,27.81,28,27,28H15.01
	C14.55,27.99,14,27.81,14,27V16.01c0.01-0.46,0.19-1.01,1-1.01h11.99c0.46,0.01,1.01,0.2,1.01,1V26.99z M23.19,20.4
	C23.65,20.02,24,19.41,24,18.5c0-1.98-1.64-2.5-2.5-2.5H17v11h4.5c1.21,0,3.5-0.73,3.5-3.5C25,21.8,24.14,20.87,23.19,20.4z M18,17
	h3.5c0.25,0,1.5,0.09,1.5,1.5S21.75,20,21.5,20H18V17z M21.5,26H18v-5h3.5c0.1,0,2.5,0.03,2.5,2.5C24,25.91,21.75,26,21.5,26z"></path>
</svg>