<svg xmlns="http://www.w3.org/2000/svg" xmlns:xlink="http://www.w3.org/1999/xlink" version="1.1"  x="0px" y="0px" width="32" height="32" viewBox="0 0 32 32" style="enable-background:new 0 0 32 32;" xml:space="preserve" viewbox="0 0 32 32">
<path d="M28.43,27.26L22.68,8.35C22.61,8.141,22.42,8,22.2,8H16V5.95c1.14-0.229,2-1.24,2-2.45C18,2.12,16.88,1,15.5,1  S13,2.12,13,3.5c0,1.21,0.86,2.221,2,2.45V8H8.76C8.54,8,8.35,8.141,8.28,8.35l-5.78,19c-0.04,0.16-0.02,0.32,0.08,0.45  c0.09,0.12,0.24,0.2,0.4,0.2h25.01c0.279,0,0.5-0.22,0.5-0.5L28.43,27.26z M14,3.5C14,2.67,14.67,2,15.5,2S17,2.67,17,3.5  S16.33,5,15.5,5S14,4.33,14,3.5z M3.65,27L9.13,9h12.7l5.47,18H3.65z M17.5,16c-0.56,0-1.09,0.19-1.5,0.5V13h-1v8h1v-0.5  c0.41,0.31,0.94,0.5,1.5,0.5c1.38,0,2.5-1.12,2.5-2.5S18.88,16,17.5,16z M17.5,20c-0.83,0-1.5-0.67-1.5-1.5s0.67-1.5,1.5-1.5  s1.5,0.67,1.5,1.5S18.33,20,17.5,20z M13,13h1v8h-1V13z"></path>
</svg>