<svg xmlns="http://www.w3.org/2000/svg" xmlns:xlink="http://www.w3.org/1999/xlink" version="1.1"  x="0px" y="0px" width="32" height="32" viewBox="0 0 40 40" enable-background="new 0 0 40 40" xml:space="preserve" preserveAspectRatio="none" viewbox="0 0 32 32">
<g id="55152572_Shape_5_xA0_Clipping_Path_1_">
	<g>
		<path d="M36.587,27.199l1.064-3.273l-4.21-2.662C33.48,20.848,33.5,20.427,33.5,20c0-0.426-0.022-0.847-0.062-1.263l4.212-2.663    l-1.063-3.274l-4.981,0.322c-0.43-0.723-0.932-1.396-1.484-2.023l1.851-4.65l-2.784-2.024L25.34,7.621    c-0.764-0.33-1.558-0.602-2.387-0.787L21.721,2h-3.442l-1.232,4.834c-0.829,0.186-1.626,0.454-2.39,0.783l-3.844-3.191    L8.027,6.449l1.848,4.646c-0.553,0.627-1.044,1.308-1.475,2.029l-4.988-0.322l-1.063,3.273l4.21,2.662    C6.52,19.152,6.5,19.574,6.5,20c0,0.426,0.022,0.847,0.061,1.263l-4.212,2.663l1.064,3.273l4.981-0.321    c0.43,0.723,0.932,1.396,1.483,2.022l-1.85,4.65l2.785,2.023l3.849-3.194c0.763,0.329,1.557,0.601,2.385,0.786L18.279,38h3.442    l1.232-4.834c0.829-0.186,1.626-0.453,2.39-0.783l3.845,3.191l2.785-2.023l-1.848-4.646c0.553-0.627,1.044-1.308,1.475-2.028    L36.587,27.199z M20,26c-3.314,0-6-2.687-6-6s2.686-6,6-6c3.313,0,6,2.687,6,6S23.313,26,20,26z"></path>
	</g>
</g>
</svg>