<svg xmlns="http://www.w3.org/2000/svg" xmlns:xlink="http://www.w3.org/1999/xlink" version="1.1"  x="0px" y="0px" width="32" height="32" viewBox="0 0 32 32" style="enable-background:new 0 0 32 32;" xml:space="preserve" preserveAspectRatio="none" viewbox="0 0 32 32">
<path d="M28.99,13C28.73,7.6,24.4,3.27,19,3.01V3h-0.5H18v0.01C12.6,3.27,8.27,7.6,8.01,13H8v0.5V14h0.01  c0.05,1.05,0.26,2.06,0.59,3H3v12h17v-5.11c4.93-0.71,8.75-4.83,8.99-9.89H29v-0.5V13H28.99z M25.43,7h-1.88  c-0.6-1.11-1.319-1.91-2.03-2.5C23.03,5,24.36,5.87,25.43,7z M23.99,13H19V8h3.94C23.52,9.25,23.94,10.88,23.99,13z M22.4,7H19V4.17  C19.8,4.46,21.26,5.21,22.4,7z M13.01,13c0.05-2.12,0.46-3.75,1.03-5H18v5H13.01z M18,14v3h-4.62c-0.21-0.87-0.34-1.86-0.37-3H18z   M14.57,7C15.71,5.18,17.19,4.44,18,4.15V7H14.57z M15.48,4.5c-0.71,0.59-1.43,1.39-2.03,2.5h-1.88C12.64,5.87,13.97,5,15.48,4.5z   M10.75,8h2.21c-0.53,1.3-0.9,2.94-0.95,5h-3C9.11,11.15,9.74,9.43,10.75,8z M12.01,14c0.03,1.12,0.15,2.12,0.34,3H9.67  c-0.37-0.94-0.6-1.95-0.66-3H12.01z M18.17,18l-6.67,5.84L4.83,18H18.17z M4,18.61l4.11,3.59L4,27.12V18.61z M4.56,28l4.3-5.15  l2.64,2.311l2.64-2.311l4.3,5.15H4.56z M19,27.12l-4.11-4.92L19,18.61V27.12z M19,17v-3h4.99c-0.05,2.12-0.46,3.75-1.03,5H20v-2H19z   M20,22.38V20h2.43C21.67,21.21,20.76,21.95,20,22.38z M21.52,22.5c0.711-0.59,1.431-1.39,2.03-2.5h1.88  C24.36,21.13,23.03,22,21.52,22.5z M26.25,19h-2.21c0.53-1.3,0.9-2.94,0.95-5h3C27.89,15.85,27.26,17.57,26.25,19z M24.99,13  c-0.05-2.06-0.42-3.7-0.95-5h2.21c1.01,1.43,1.64,3.15,1.74,5H24.99z"></path>
</svg>