<svg version="1.1"  xmlns="http://www.w3.org/2000/svg" xmlns:xlink="http://www.w3.org/1999/xlink" x="0px" y="0px" width="32" height="32" viewBox="0 0 32 32" style="enable-background:new 0 0 32 32;" xml:space="preserve" preserveAspectRatio="none" viewbox="0 0 32 32">
<path d="M10.85,19.15l3.36,3.35l-3.36,3.35l-0.7-0.699L12.29,23H8.5C6.52,23,6,21.36,6,20.5V17h1v3.5C7,20.75,7.09,22,8.5,22h3.79
	l-2.14-2.15L10.85,19.15z M26,15h-8v1h8V15z M26,18h-8v1h8V18z M26,21h-8v1h8V21z M26,24h-8v1h8V24z M29,11v18H15V16H3V3h19v8H29z
	 M16,9h5V4h-5V9z M16,11h5v-1h-5V11z M9,10H4v5h5V10z M9,4H4v5h5V4z M15,10h-5v5h5V10z M15,4h-5v5h5V4z M28,12H16v16h12V12z"></path>
</svg>