<svg xmlns="http://www.w3.org/2000/svg" xmlns:xlink="http://www.w3.org/1999/xlink" version="1.1"  x="0px" y="0px" width="32" height="32" viewBox="0 0 40 40" enable-background="new 0 0 40 40" xml:space="preserve" preserveAspectRatio="none" viewbox="0 0 32 32">
<g id="55851732_Shape_5_xA0_Clipping_Path_1_">
	<g>
		<path d="M36,5H4C3,5,2,6,2,7v26c0,1,1,2,2,2h32c1,0,2-1,2-2V7C38,6,37,5,36,5z M34,11.15l-6.946,2.517l-7.389,11.57l-6.72-4.555    L8,26.573V30h26v2H6V9h2v14.462l4.572-5.448l6.513,4.415l6.648-10.411L34,9.023V11.15z"></path>
	</g>
</g>
</svg>