<svg xmlns="http://www.w3.org/2000/svg" xmlns:xlink="http://www.w3.org/1999/xlink" version="1.1"  x="0px" y="0px" width="32" height="32" viewBox="0 0 32 32" style="enable-background:new 0 0 32 32;" xml:space="preserve" preserveAspectRatio="none" viewbox="0 0 32 32">
<path d="M19,17c3.313,0,6-2.687,6-6s-2.687-6-6-6s-6,2.687-6,6S15.687,17,19,17z M19,6c2.762,0,5,2.238,5,5s-2.238,5-5,5  s-5-2.238-5-5S16.238,6,19,6z M30,28c0-4.838-3.127-8.937-7.467-10.409L19,21.125l-3.529-3.53c-1.506,0.514-2.87,1.336-4.005,2.405  H3.08c0.486-3.391,3.395-6,6.92-6v-1c-2.209,0-4-1.791-4-4s1.791-4,4-4c1.029,0,1.958,0.399,2.666,1.038l0.669-0.743  c-0.886-0.797-2.045-1.296-3.33-1.296c-2.76,0-4.998,2.238-4.998,4.998c0,1.888,1.059,3.512,2.604,4.362C4.359,14.375,2,17.411,2,21  h8.515C8.944,22.902,8,25.341,8,28H30z M15.237,18.736L19,22.5l3.763-3.763c3.362,1.367,5.813,4.508,6.187,8.263H9.05  C9.423,23.245,11.875,20.104,15.237,18.736z"></path>
</svg>