<svg xmlns="http://www.w3.org/2000/svg" xmlns:xlink="http://www.w3.org/1999/xlink" version="1.1"  x="0px" y="0px" width="32" height="32" viewBox="0 0 32 32" style="enable-background:new 0 0 32 32;" xml:space="preserve" preserveAspectRatio="none" viewbox="0 0 32 32">
<path d="M16.5,4C9.6,4,4,9.6,4,16.5C4,23.4,9.6,29,16.5,29C23.4,29,29,23.4,29,16.5C29,9.6,23.4,4,16.5,4z M16.5,28  C10.16,28,5,22.84,5,16.5S10.16,5,16.5,5S28,10.16,28,16.5S22.84,28,16.5,28z M17,11v5h3v1h-4v-6H17z M10.85,15.85L8.5,18.21  l-2.35-2.36l0.7-0.7L8,16.3C8.11,11.69,11.87,8,16.5,8c3.68,0,6.82,2.34,7.99,5.62l-0.79,0.79C22.79,11.28,19.91,9,16.5,9  c-4.07,0-7.38,3.24-7.49,7.28l1.14-1.13L10.85,15.85z M26.85,17.14l-0.699,0.71L25,16.71C24.88,21.32,21.12,25,16.5,25  c-3.61,0-6.71-2.26-7.93-5.45l0.78-0.78C10.31,21.8,13.15,24,16.5,24c4.06,0,7.38-3.25,7.49-7.28l-1.141,1.13L22.15,17.15l2.35-2.36  L26.85,17.14z"></path>
</svg>