<svg version="1.1"  xmlns="http://www.w3.org/2000/svg" xmlns:xlink="http://www.w3.org/1999/xlink" x="0px" y="0px" width="32" height="32" viewBox="0 0 32 32" style="enable-background:new 0 0 32 32;" xml:space="preserve" preserveAspectRatio="none" viewbox="0 0 32 32">
<path d="M27.5,12.971c-0.806,0-1.324,0.369-1.742,0.666C25.442,13.862,25.236,14,25,14c-0.247,0-1,0-1-1.5
	c0-2.809,1.896-5.694,1.916-5.723c0.153-0.23,0.091-0.54-0.139-0.693C25.649,5.999,22.615,4,19.5,4C17.935,4,17,4.748,17,6
	c0,0.567,0.291,0.977,0.549,1.339S18.03,8.014,18.03,8.5c0,0.827-0.911,1.5-2.03,1.5s-2.03-0.673-2.03-1.5
	c0-0.486,0.223-0.799,0.481-1.162C14.708,6.977,15,6.567,15,6c0-1.252-0.935-2-2.5-2C9.384,4,6.351,5.999,6.223,6.084
	C5.993,6.237,5.931,6.548,6.084,6.777C6.103,6.806,8,9.685,8,12.5C8,14,7.247,14,7,14c-0.24,0-0.437-0.128-0.764-0.354
	C5.82,13.358,5.302,13,4.5,13C3.122,13,2,14.346,2,16s1.122,3,2.5,3c0.802,0,1.32-0.357,1.736-0.646C6.563,18.128,6.76,18,7,18
	c0.247,0,1,0,1,1.5c0,2.808-1.897,5.694-1.916,5.724c-0.153,0.229-0.091,0.54,0.139,0.692C6.351,26.001,9.384,28,12.5,28
	c1.565,0,2.5-0.747,2.5-2c0-0.563-0.282-0.972-0.532-1.332C14.217,24.304,14,23.99,14,23.5c0-0.827,0.897-1.5,2-1.5
	c1.104,0,2,0.673,2,1.5c0,0.49-0.218,0.804-0.468,1.168C17.282,25.028,17,25.437,17,26c0,1.253,0.935,2,2.5,2
	c3.115,0,6.149-1.999,6.277-2.084c0.229-0.153,0.292-0.463,0.139-0.693C25.896,25.194,24,22.315,24,19.5c0-1.5,0.753-1.5,1-1.5
	c0.236,0,0.442,0.139,0.758,0.363c0.418,0.297,0.937,0.667,1.742,0.667c1.378,0,2.5-1.36,2.5-3.03S28.878,12.971,27.5,12.971z
	 M27.5,18.03c-0.486,0-0.799-0.224-1.161-0.481S25.567,17,25,17c-1.253,0-2,0.935-2,2.5c0,2.458,1.244,4.865,1.812,5.835
	C23.914,25.854,21.688,27,19.5,27C18,27,18,26.247,18,26c0-0.24,0.128-0.437,0.354-0.764C18.643,24.819,19,24.302,19,23.5
	c0-1.378-1.346-2.5-3-2.5s-3,1.122-3,2.5c0,0.802,0.358,1.319,0.646,1.736C13.872,25.563,14,25.76,14,26c0,0.247,0,1-1.5,1
	c-2.183,0-4.413-1.146-5.311-1.666C7.756,24.365,9,21.958,9,19.5C9,17.935,8.252,17,7,17c-0.564,0-0.972,0.282-1.333,0.532
	C5.304,17.782,4.99,18,4.5,18C3.673,18,3,17.104,3,16c0-1.103,0.673-2,1.5-2c0.49,0,0.804,0.217,1.167,0.469
	C6.028,14.718,6.436,15,7,15c1.252,0,2-0.935,2-2.5c0-2.458-1.244-4.865-1.812-5.835C8.086,6.146,10.312,5,12.5,5
	C14,5,14,5.753,14,6c0,0.236-0.138,0.442-0.363,0.758C13.34,7.176,12.97,7.694,12.97,8.5c0,1.378,1.359,2.5,3.03,2.5
	c1.67,0,3.03-1.122,3.03-2.5c0-0.806-0.37-1.324-0.667-1.742C18.139,6.442,18,6.236,18,6c0-0.247,0-1,1.5-1
	c2.183,0,4.413,1.146,5.312,1.666C24.244,7.635,23,10.042,23,12.5c0,1.565,0.747,2.5,2,2.5c0.567,0,0.977-0.291,1.338-0.549
	c0.363-0.258,0.676-0.48,1.162-0.48c0.827,0,1.5,0.91,1.5,2.029S28.327,18.03,27.5,18.03z"></path>
</svg>