<svg xmlns="http://www.w3.org/2000/svg" xmlns:xlink="http://www.w3.org/1999/xlink" version="1.1"  x="0px" y="0px" width="32" height="32" viewBox="0 0 32 32" style="enable-background:new 0 0 32 32;" xml:space="preserve" viewbox="0 0 32 32">
<path d="M18.76,17.36L16,20.12l-2.76-2.76C8.5,18.59,5,22.88,5,28h22C27,22.88,23.5,18.59,18.76,17.36z M12.97,18.47L16,21.5  l3.03-3.03c3.729,1.19,6.52,4.511,6.92,8.53H6.05C6.45,22.98,9.24,19.66,12.97,18.47z M16,16c1.48,0,2.83-0.53,3.87-1.42l2.78,2.77  l0.699-0.699l-2.77-2.78C21.47,12.83,22,11.48,22,10c0-3.31-2.69-6-6-6c-3.31,0-6,2.69-6,6S12.69,16,16,16z M16,5c2.76,0,5,2.24,5,5  s-2.24,5-5,5s-5-2.24-5-5S13.24,5,16,5z M16,13c1.66,0,3-1.34,3-3s-1.34-3-3-3s-3,1.34-3,3S14.34,13,16,13z M16,8c1.1,0,2,0.9,2,2  s-0.9,2-2,2c-1.1,0-2-0.9-2-2S14.9,8,16,8z"></path>
</svg>