<svg version="1.1"  xmlns="http://www.w3.org/2000/svg" xmlns:xlink="http://www.w3.org/1999/xlink" x="0px" y="0px" width="32" height="32" viewBox="0 0 32 32" style="enable-background:new 0 0 32 32;" xml:space="preserve" preserveAspectRatio="none" viewbox="0 0 32 32">
<path d="M25.414,9L19,2.586C18.646,2.232,18.621,2,18,2H7.5C6.672,2,6,2.672,6,3.5v25C6,29.328,6.672,30,7.5,30h17
	c0.828,0,1.5-0.672,1.5-1.5V10C26,9.368,25.768,9.354,25.414,9z M19,4l5,5c-1.861,0-4.5,0-4.5,0C19.223,9,19,8.776,19,8.5V4z
	 M25,28.5c0,0.276-0.225,0.5-0.5,0.5h-17C7.225,29,7,28.776,7,28.5v-25C7,3.224,7.225,3,7.5,3C8.5,3,18,3,18,3v5.5
	c0,0.828,0.672,1.5,1.5,1.5H25C25,10,25,28,25,28.5z"></path>
</svg>