<svg xmlns="http://www.w3.org/2000/svg" xmlns:xlink="http://www.w3.org/1999/xlink" version="1.1"  x="0px" y="0px" width="32" height="32" viewBox="0 0 32 32" style="enable-background:new 0 0 32 32;" xml:space="preserve" viewbox="0 0 32 32">
<path d="M15,5c0-0.553,0.447-1,1-1s1,0.447,1,1s-0.447,1-1,1S15,5.553,15,5z M27,5.5v24c0,0.828-0.672,1.5-1.5,1.5h-19  C5.672,31,5,30.328,5,29.5v-24C5,4.672,5.672,4,6.5,4h5.642C12.588,2.277,14.139,1,16,1s3.412,1.277,3.858,3H25.5  C26.328,4,27,4.672,27,5.5z M9.316,7.949C8.332,8.276,8,8.795,8,10h16c0-1.205-0.332-1.724-1.316-2.051L19,6.721V5  c0-1.654-1.346-3-3-3s-3,1.346-3,3v1.721L9.316,7.949z M9,11v15h14V11H9z M26,5.5C26,5.224,25.776,5,25.5,5H20c0,0.5,0,1,0,1  s1.5,0.5,3,1s2,1.5,2,3c0,0.5,0,1,0,1h-1.001l-0.004,15.999L8.001,26.984L8,11H7c0,0,0-0.5,0-1c0-1.5,0.5-2.5,2-3s3-1,3-1s0-0.5,0-1  H6.5C6.224,5,6,5.224,6,5.5v24C6,29.776,6.224,30,6.5,30h19c0.276,0,0.5-0.224,0.5-0.5V5.5z M22,25H10V15h12V25z M21,22H11v2h10V22z   M21,19H11v2h10V19z M21,16H11v2h10V16z M22,12H10v1h12V12z"></path>
</svg>