<svg xmlns="http://www.w3.org/2000/svg" xmlns:xlink="http://www.w3.org/1999/xlink" version="1.1"  x="0px" y="0px" width="32" height="32" viewBox="0 0 32 32" style="enable-background:new 0 0 32 32;" xml:space="preserve" viewbox="0 0 32 32">

<path class="st0" d="M24,3C22,3,8,3,8,3S6,3,6,5v22c0,0,0,2,2,2s16,0,16,0s2,0,2-2s0-22,0-22S26,3,24,3z M25,27  c0,0.806-0.55,0.988-1,1H8c-0.805,0-0.988-0.55-1-1V5c0-0.805,0.55-0.988,1-1h16c0.806,0,0.988,0.551,1,1V27z M22,5c0,0-10,0-12,0  S8,7,8,7v1c0,2,2,2,2,2s10,0,12,0s2-2,2-2V7C24,5,22,5,22,5z M23,7.988C22.988,8.449,22.806,9,22,9H10.012C9.55,8.988,9,8.805,9,8  V7.012C9.012,6.551,9.195,6,10,6h11.992C22.453,6.013,23,6.197,23,7V7.988z M22,11H10c-2,0-2,2-2,2v12c0,2,2,2,2,2h3h1h4h1h3  c2,0,2-2,2-2V13C24,11,22,11,22,11z M18,12v4h-4v-4H18z M18,17v4h-4v-4H18z M9,13.012C9.012,12.551,9.195,12,10,12h3v4H9V13.012z   M9,17h4v4H9V17z M10.012,26C9.55,25.988,9,25.806,9,25v-3h4v4H10.012z M14,26v-4h4v4H14z M23,24.988C22.988,25.45,22.806,26,22,26  h-3v-4h4V24.988z M23,21h-4v-4h4V21z M23,16h-4v-4h2.992C22.453,12.013,23,12.197,23,13V16z" style="fill-rule:evenodd;clip-rule:evenodd;;"></path>
</svg>