<svg version="1.1"  xmlns="http://www.w3.org/2000/svg" xmlns:xlink="http://www.w3.org/1999/xlink" x="0px" y="0px" width="32" height="32" viewBox="0 0 48 48" enable-background="new 0 0 48 48" xml:space="preserve" viewbox="0 0 32 32">
<g>
	<path d="M28,16c0-0.512-0.195-1.023-0.586-1.414c-0.781-0.781-2.047-0.781-2.828,0l-8,8c-0.781,0.781-0.781,2.048,0,2.828l8,8
		c0.781,0.781,2.047,0.781,2.828,0c0.781-0.78,0.781-2.048,0-2.828L20.829,24l6.585-6.586C27.805,17.023,28,16.512,28,16z"></path>
	<path d="M24,4C12.972,4,4,12.972,4,24s8.972,20,20,20c11.028,0,20-8.972,20-20S35.028,4,24,4z M24,40c-8.822,0-16-7.178-16-16
		S15.178,8,24,8s16,7.178,16,16S32.822,40,24,40z"></path>
</g>
</svg>