<svg version="1.1"  xmlns="http://www.w3.org/2000/svg" xmlns:xlink="http://www.w3.org/1999/xlink" x="0px" y="0px" width="32" height="32" viewBox="0 0 32 32" style="enable-background:new 0 0 32 32;" xml:space="preserve" preserveAspectRatio="none" viewbox="0 0 32 32">
<path d="M18.354,13.307c0.085,0.263-0.058,0.544-0.321,0.63l-1.724,0.56l1.066,1.466c0.162,0.223,0.113,0.536-0.11,0.698
	c-0.224,0.163-0.537,0.114-0.699-0.11L15.5,15.085l-1.065,1.466c-0.162,0.223-0.475,0.273-0.698,0.11
	c-0.224-0.162-0.273-0.474-0.111-0.698l1.065-1.466l-1.723-0.56c-0.263-0.086-0.406-0.367-0.321-0.63
	c0.085-0.262,0.367-0.406,0.63-0.321L15,13.546v-1.812c0-0.276,0.224-0.5,0.5-0.5s0.5,0.224,0.5,0.5v1.812l1.724-0.56
	C17.987,12.901,18.269,13.045,18.354,13.307z M29.255,25.691C29.178,25.878,28.995,26,28.793,26H25v3.793
	c0,0.202-0.122,0.385-0.307,0.462l-0.191,0.038c-0.13,0-0.258-0.05-0.354-0.146l-4.812-4.811C18.136,25.762,16.848,26,15.501,26
	c-1.347,0-2.634-0.238-3.836-0.664l-4.811,4.811C6.758,30.242,6.63,30.293,6.5,30.293l-0.191-0.038C6.122,30.178,6,29.995,6,29.793
	V26H2.207c-0.202,0-0.384-0.122-0.461-0.309c-0.078-0.188-0.035-0.402,0.108-0.545l4.153-4.152C4.74,19.146,4,16.91,4,14.5
	C4,8.146,9.146,3,15.5,3C21.854,3,27,8.146,27,14.5c0,2.41-0.739,4.645-2.006,6.494l4.152,4.152
	C29.289,25.289,29.332,25.504,29.255,25.691z M10.659,24.926c-1.573-0.73-2.958-1.798-4.048-3.123L3.414,25H7v3.586L10.659,24.926z
	 M26,14.5C26,8.697,21.303,4,15.5,4C9.698,4,5,8.697,5,14.5C5,20.303,9.698,25,15.5,25C21.303,25,26,20.303,26,14.5z M27.586,25
	l-3.197-3.197c-1.09,1.325-2.476,2.393-4.049,3.123l3.66,3.66V25H27.586z M23,14.5c0,4.143-3.357,7.5-7.5,7.5
	C11.358,22,8,18.643,8,14.5C8,10.358,11.358,7,15.5,7C19.643,7,23,10.358,23,14.5z M22,14.5c0-3.584-2.916-6.5-6.5-6.5
	S9,10.916,9,14.5s2.916,6.5,6.5,6.5S22,18.084,22,14.5z"></path>
</svg>