<svg xmlns="http://www.w3.org/2000/svg"  data-name="linea guia" viewBox="0 0 32 32" preserveAspectRatio="none" width="32" height="32" viewbox="0 0 32 32"><path d="M26.38,13.2a3.11,3.11,0,1,0-3.11-3.11,2.93,2.93,0,0,0,.18,1l-2.57,1.37a5.74,5.74,0,0,0-4.95-2.85,5.69,5.69,0,0,0-3.6,1.28l-3-3a3.23,3.23,0,1,0-.69.72l2.95,3a5.69,5.69,0,0,0,.49,8L8.9,22.67a3.87,3.87,0,1,0,.57.84l3.44-3.32a5.67,5.67,0,0,0,6.07,0l3.27,3.15a2.39,2.39,0,0,0-.41,1.35,2.43,2.43,0,1,0,2.43-2.43,2.36,2.36,0,0,0-1.29.38l-3.19-3.06a5.73,5.73,0,0,0,1.88-4.24,5.94,5.94,0,0,0-.36-2L23.91,12A3.1,3.1,0,0,0,26.38,13.2ZM6.11,28a2.77,2.77,0,1,1,2.77-2.76A2.77,2.77,0,0,1,6.11,28Zm18.16-4.71a1.43,1.43,0,1,1-1.43,1.43A1.43,1.43,0,0,1,24.27,23.24Zm-17.5-15A2.11,2.11,0,1,1,8.88,6.16,2.12,2.12,0,0,1,6.77,8.27Zm9.16,11.79a4.74,4.74,0,1,1,4.74-4.74A4.74,4.74,0,0,1,15.93,20.06ZM26.38,8a2.11,2.11,0,1,1-2.11,2.11A2.1,2.1,0,0,1,26.38,8Z"></path></svg>