<svg xmlns="http://www.w3.org/2000/svg" xmlns:xlink="http://www.w3.org/1999/xlink" version="1.1"  x="0px" y="0px" width="32" height="32" viewBox="0 0 32 32" style="enable-background:new 0 0 32 32;" xml:space="preserve" viewbox="0 0 32 32">
<path d="M27.851,22.073l-0.009-0.009c-1.13-1.1-3.287-3.148-5.046-4.525c-0.397-0.313-0.966-0.277-1.323,0.08L18.592,20.5  c-1.169,1.169-3.337-0.509-4.95-2.121c-1.613-1.613-3.291-3.781-2.122-4.95l2.881-2.881c0.357-0.357,0.392-0.926,0.081-1.323  c-1.372-1.752-3.423-3.911-4.523-5.043l-0.01-0.01C9.603,3.825,9.055,3.781,8.656,4.068C7.976,4.561,6.432,5.787,5.835,6.383  C4.947,7.27,4.029,8.186,4.007,9.967c-0.039,2.981,2.111,6.537,6.765,11.191l0.042,0.042c4.682,4.673,8.259,6.831,11.256,6.794  c1.785-0.023,2.703-0.94,3.593-1.827c0.563-0.563,1.701-1.978,2.294-2.804C28.242,22.966,28.197,22.42,27.851,22.073z   M24.955,25.459c-0.849,0.848-1.52,1.518-2.898,1.535c-2.673,0.033-6.119-2.093-10.537-6.502l-0.042-0.041  c-4.389-4.39-6.506-7.814-6.472-10.472c0.017-1.373,0.687-2.042,1.535-2.889c0.508-0.508,1.913-1.643,2.7-2.212  c1.009,1.038,3.088,3.219,4.452,4.962l-2.881,2.881c-1.408,1.408-0.694,3.549,2.121,6.364c2.815,2.815,4.956,3.528,6.364,2.121  l2.881-2.881c1.744,1.365,3.928,3.445,4.964,4.454C26.583,23.562,25.461,24.955,24.955,25.459z M18.48,14.222l5.512-5.467  l-0.009,2.737l1.016,0.002l-0.002-4.515l-4.5,0.033l-0.003,0.984l2.846-0.004l-5.563,5.519L18.48,14.222z M23.994,7.992v0.148  l-0.147-0.148H23.994z"></path>
</svg>