<svg version="1.1"  xmlns="http://www.w3.org/2000/svg" xmlns:xlink="http://www.w3.org/1999/xlink" x="0px" y="0px" width="32" height="32" viewBox="0 0 32 32" style="enable-background:new 0 0 32 32;" xml:space="preserve" preserveAspectRatio="none" viewbox="0 0 32 32">
<path d="M24,3h-7c-2,0-2,2-2,2v4h-3c-2,0-2,2-2,2v4H7c-2,0-2,2-2,2v10c0,2,2,2,2,2h7c2,0,2-2,2-2v-4h3c2,0,2-2,2-2v-4h3c2,0,2-2,2-2
	V5C26,3,24,3,24,3z M15,26.99C14.99,27.45,14.81,28,14,28H7.01C6.55,27.99,6,27.81,6,27v-1h9V26.99z M15,25H6v-6h9V25z M15,18H6
	v-0.99C6.01,16.55,6.19,16,7,16h6.99c0.46,0.01,1.01,0.2,1.01,1V18z M20,20.99C19.99,21.45,19.8,22,19,22h-3v-2h4V20.99z M20,19h-4
	v-2l-0.01-0.26c-0.08-0.82-0.53-1.26-0.98-1.48C14.51,15,14,15,14,15h-3v-2h9V19z M20,12h-9v-0.99c0.01-0.46,0.19-1.01,1-1.01h6.99
	c0.46,0.01,1.01,0.2,1.01,1V12z M25,14.99C24.99,15.45,24.8,16,24,16h-3v-2h4V14.99z M25,13h-4v-2c0-2-2-2-2-2h-3V7h9V13z M25,6h-9
	V5.01C16.01,4.55,16.2,4,17,4h6.99C24.45,4.01,25,4.2,25,5V6z"></path>
</svg>