<svg xmlns="http://www.w3.org/2000/svg" xmlns:xlink="http://www.w3.org/1999/xlink" version="1.1"  x="0px" y="0px" width="32" height="32" viewBox="0 0 32 32" style="enable-background:new 0 0 32 32;" xml:space="preserve" preserveAspectRatio="none" viewbox="0 0 32 32">
<path d="M15.969,6c-2.227,0-4.031,1.791-4.031,4s1.805,4,4.031,4S20,12.209,20,10S18.195,6,15.969,6z M15.969,13  c-1.674,0-3.031-1.343-3.031-3s1.357-3,3.031-3C17.643,7,19,8.343,19,10S17.643,13,15.969,13z M16.031,3C12.154,3,9,6.141,9,10  c0,2.173,0.853,3.967,1.114,4.465c0.125,0.238,0.281,0.517,0.459,0.837c1.252,2.248,3.582,6.432,4.436,12.83  C15.075,28.629,15.499,29,16,29s0.925-0.371,0.991-0.868c0.854-6.398,3.184-10.582,4.436-12.83c0.179-0.32,0.333-0.599,0.458-0.837  C22.239,13.791,23,12.006,23,10C23,6.141,19.908,3,16.031,3z M20.969,14c-1,1.905-4,6.5-5,14c-1-7.5-4-12.095-5-14  C10.469,13.048,10,11.537,10,10c0-3.313,2.669-6,6-6s6,2.687,6,6C22,11.536,21.469,13.048,20.969,14z"></path>
</svg>