<svg version="1.1"  xmlns="http://www.w3.org/2000/svg" xmlns:xlink="http://www.w3.org/1999/xlink" x="0px" y="0px" width="32" height="32" viewBox="0 0 32 32" style="enable-background:new 0 0 32 32;" xml:space="preserve" viewbox="0 0 32 32">
<g>
	<path d="M27.999,16c0,1.104-0.896,2-2,2H6c-1.104,0-2-0.896-2-2l0,0c0-1.104,0.896-2,2-2h19.999C27.104,14,27.999,14.896,27.999,16
		L27.999,16z M27.999,10c0-1.104-0.896-2-2-2H6c-1.104,0-2,0.896-2,2l0,0c0,1.104,0.896,2,2,2h19.999
		C27.104,12,27.999,11.104,27.999,10L27.999,10z M27.999,22c0-1.104-0.896-2-2-2H6c-1.104,0-2,0.896-2,2l0,0c0,1.104,0.896,2,2,2
		h19.999C27.104,24,27.999,23.104,27.999,22L27.999,22z"></path>
</g>
</svg>