<svg version="1.1"  xmlns="http://www.w3.org/2000/svg" xmlns:xlink="http://www.w3.org/1999/xlink" x="0px" y="0px" width="32" height="32" viewBox="0 0 32 32" style="enable-background:new 0 0 32 32;" xml:space="preserve" viewbox="0 0 32 32">
<path d="M12.84,17.24L11,20.93l3.72-1.859l1.311,3.949l1.31-3.91L21,20.93l-1.84-3.689l3.88-1.291l-3.91-1.309l1.82-3.66l-3.67,1.83
	L16,8.98l-1.28,3.83l-3.67-1.83l1.82,3.66l-3.91,1.309L12.84,17.24z M13.188,15.589l1.09-0.365l-0.512-1.029l-0.492-0.988l1,0.499
	l1.03,0.514l0.365-1.092L16,12.135l0.332,0.993l0.364,1.092l1.03-0.514l0.999-0.499l-0.491,0.988l-0.512,1.029l1.09,0.365
	l1.068,0.357l-1.036,0.345l-1.094,0.364l0.515,1.031l0.508,1.019l-0.988-0.491l-1.028-0.512l-0.365,1.09l-0.357,1.065l-0.365-1.103
	l-0.364-1.096l-1.033,0.517l-1.042,0.521l0.504-1.01l0.514-1.031l-1.093-0.364l-1.037-0.345L13.188,15.589z M23,4H9
	C6.8,4,6,5.79,6,7v18c0,2.2,1.79,3,3,3h14c2.2,0,3-1.79,3-3V7C26,4.8,24.21,4,23,4z M23,27c-2,0-14,0-14,0s-2,0-2-2h18
	C25,25,25,27,23,27z M25,24H7V8h18V24z M7,7c0,0,0-2,2-2s14,0,14,0s2,0,2,2H7z"></path>
</svg>