<svg xmlns="http://www.w3.org/2000/svg" xmlns:xlink="http://www.w3.org/1999/xlink" version="1.1"  x="0px" y="0px" width="32" height="32" viewBox="0 0 32 32" style="enable-background:new 0 0 32 32;" xml:space="preserve" viewbox="0 0 32 32">
<path d="M16,15h2v1h-2v2h-1v-2h-2v-1h2v-2h1V15z M28,15v1h-2.029c-0.255,5.396-4.575,9.715-9.971,9.97V28h-1v-2.03  C9.604,25.715,5.284,21.396,5.029,16H3v-1h2.029C5.284,9.604,9.604,5.285,15,5.03V3h1v2.03c5.396,0.255,9.716,4.574,9.971,9.97H28z   M22,16v-1h2.976c-0.253-4.846-4.13-8.722-8.976-8.975V9h-1V6.025C10.154,6.278,6.277,10.154,6.024,15H9v1H6.024  c0.253,4.846,4.129,8.722,8.976,8.975V22h1v2.975c4.846-0.253,8.723-4.129,8.976-8.975H22z"></path>
</svg>