<svg xmlns="http://www.w3.org/2000/svg" xmlns:xlink="http://www.w3.org/1999/xlink" version="1.1"  x="0px" y="0px" width="32" height="32" viewBox="0 0 32 32" style="enable-background:new 0 0 32 32;" xml:space="preserve" preserveAspectRatio="none" viewbox="0 0 32 32">
<path d="M15.5,4C8.6,4,3,9.6,3,16.5C3,23.4,8.6,29,15.5,29C22.4,29,28,23.4,28,16.5C28,9.6,22.4,4,15.5,4z M15.5,28  C9.16,28,4,22.84,4,16.5S9.16,5,15.5,5S27,10.16,27,16.5S21.84,28,15.5,28z M25,16.5c0,2.61-1.05,4.98-2.76,6.7  c-0.12,0.12-0.25,0.24-0.38,0.359l-2.21-2.21l0.699-0.699l1.5,1.5C23.09,20.77,23.87,18.97,23.98,17H22v-1h1.99  c-0.12-1.97-0.91-3.77-2.141-5.15l-1.5,1.5l-0.699-0.7l1.5-1.5C19.77,8.92,17.97,8.13,16,8.01V10h-1V8.01  c-1.97,0.12-3.77,0.91-5.15,2.14l1.5,1.5l-0.7,0.7l-1.5-1.5C7.92,12.23,7.13,14.03,7.01,16H9v1H7.03c0.1,1.97,0.88,3.77,2.12,5.15  l1.5-1.5l0.7,0.699l-1.49,1.5L9.15,23.57c-0.02-0.021-0.04-0.04-0.06-0.061c-0.14-0.12-0.27-0.25-0.39-0.38  C7.02,21.42,6,19.08,6,16.5C6,11.25,10.25,7,15.5,7S25,11.25,25,16.5z M15.5,17H12c-0.276,0-0.5-0.224-0.5-0.5S11.724,16,12,16h3.5  c0.276,0,0.5,0.224,0.5,0.5S15.776,17,15.5,17z"></path>
</svg>