<svg xmlns="http://www.w3.org/2000/svg" xmlns:xlink="http://www.w3.org/1999/xlink" version="1.1"  x="0px" y="0px" width="32" height="32" viewBox="0 0 32 32" style="enable-background:new 0 0 32 32;" xml:space="preserve" preserveAspectRatio="none" viewbox="0 0 32 32">
<path d="M5,17h1v9H5V17z M25.321,17.514C25.737,17.881,26,18.409,26,19.001c0,0.863-0.56,1.627-1.339,1.901  C24.875,21.22,25,21.603,25,22.014c0,0.962-0.469,1.796-1.375,1.986c0.375,0,0.503,0.713,0.424,1.182  c-0.16,0.938-1.477,1.65-2.485,1.819c-0.754,0.125-0.905,0.251-1.515,0.368c-1.794,0.346-3.844,0.645-6.549,0.645  c-3.87,0-6.114-2.198-6.207-2.292L7,25.428v-8.08l0.054-0.157c0.023-0.066,0.622-1.62,2.612-4.728  c2.678-4.182,2.366-0.932,4.672-7.054c0.326-0.867,0.946-1.439,1.78-1.439l0.123,0.005c1.014,0.066,1.788,0.877,1.763,1.846  c-0.053,2.06-0.39,3.858-1.028,5.182c-0.355,0.737-0.691,1.434-0.881,2.192c-0.083,0.332-0.063,0.554-0.006,0.627  c0.057,0.071,0.298,0.192,0.849,0.192H24c1.104,0,2,0.897,2,2C26,16.611,25.737,17.147,25.321,17.514z M21.375,17.014H24  c0.553,0,1-0.447,1-1c0-0.552-0.447-1-1-1h-7.063c-1.729,0-2.094-0.938-1.813-2.063c0.57-2.28,1.808-4.409,1.879-7.157  c0.011-0.423-0.354-0.791-0.821-0.822c-0.469-0.03-0.731,0.314-0.876,0.711C13,12,12.938,9.326,10.5,13.014  c-1.988,3.008-2.5,4.5-2.5,4.5v7.5c0,0,2,2,5.5,2s4.899-0.5,7.899-1c0.545-0.09,1.601-0.447,1.601-1c0-1.014-0.625-1-0.625-1h-2  c-0.5,0-0.5-1,0-1H23c0.553,0,1-0.447,1-1c0-0.552-0.447-1-1-1h-1.625c-0.5,0-0.5-1,0-1H24c0.553,0,1-0.465,1-1.013  c0-0.547-0.447-0.987-1-0.987h-2.625C20.875,18.014,20.875,17.014,21.375,17.014z"></path>
</svg>