<svg xmlns="http://www.w3.org/2000/svg" xmlns:xlink="http://www.w3.org/1999/xlink" version="1.1"  x="0px" y="0px" width="32" height="32" viewBox="0 0 40 40" enable-background="new 0 0 40 40" xml:space="preserve" preserveAspectRatio="none" viewbox="0 0 32 32">
<g id="55152545_Shape_5_xA0_Clipping_Path_1_">
	<g>
		<path d="M10,8.563C10,9.396,10,10,10,10h20c0,0,0-0.604,0-1.438S29.257,7,28,7h-4V4c0-2.209-1.791-4-4-4s-4,1.791-4,4v3h-4    C10.742,7,10,7.729,10,8.563z M20,3c0.553,0,1,0.447,1,1s-0.447,1-1,1c-0.552,0-1-0.447-1-1S19.448,3,20,3z M33,5h-8v1h3    c1.71,0,3,1.102,3,2.563V11h-1v23H10V11H9V8.563C9,7.102,10.29,6,12,6h3V5H7C5.896,5,5,5.896,5,7v29c0,1.104,0.896,2,2,2h26    c1.104,0,2-0.896,2-2V7C35,5.896,34.104,5,33,5z"></path>
	</g>
</g>
</svg>