<svg version="1.1"  xmlns="http://www.w3.org/2000/svg" xmlns:xlink="http://www.w3.org/1999/xlink" x="0px" y="0px" width="32" height="32" viewBox="0 0 32 32" style="enable-background:new 0 0 32 32;" xml:space="preserve" preserveAspectRatio="none" viewbox="0 0 32 32">
<path d="M23,4H9C6.8,4,6,5.79,6,7v18c0,2.2,1.79,3,3,3h14c2.2,0,3-1.79,3-3V7C26,4.8,24.21,4,23,4z M23,27c-2,0-14,0-14,0s-2,0-2-2
	h18C25,25,25,27,23,27z M25,24H7V8h18V24z M7,7c0,0,0-2,2-2s14,0,14,0s2,0,2,2H7z M11,14h10c0.97,0,2-0.7,2-2s-1.03-2-2-2H11
	c-1.3,0-2,1.03-2,2C9,13.3,10.03,14,11,14z M11,11c1,0,10,0,10,0s1,0,1,1s-1,1-1,1H11c0,0-1,0-1-1C10,12,10,11,11,11z"></path>
</svg>