<svg xmlns="http://www.w3.org/2000/svg" xmlns:xlink="http://www.w3.org/1999/xlink" version="1.1"  x="0px" y="0px" width="32" height="32" viewBox="0 0 32 32" enable-background="new 0 0 32 32" xml:space="preserve" viewbox="0 0 32 32">
<g>
	<g>
		<path d="M22,8c-2.029,0-3.88,0.76-5.29,2H8c-3.48,0-6,2.52-6,6c0,3.48,2.52,6,6,6h8.71c1.41,1.24,3.261,2,5.29,2    c4.42,0,8-3.58,8-8S26.42,8,22,8z M15.08,20H8c-2.35,0-4-1.641-4-4c0-2.35,1.65-4,4-4h7.08C14.391,13.17,14,14.54,14,16    S14.391,18.83,15.08,20z M22,22c-3.311,0-6-2.689-6-6c0-3.31,2.689-6,6-6s6,2.69,6,6C28,19.311,25.311,22,22,22z"></path>
	</g>
</g>
</svg>