<svg xmlns="http://www.w3.org/2000/svg" xmlns:xlink="http://www.w3.org/1999/xlink" version="1.1"  x="0px" y="0px" width="32" height="32" viewBox="0 0 32 32" style="enable-background:new 0 0 32 32;" xml:space="preserve" viewbox="0 0 32 32">
<path d="M12.125,16c0,0.621-0.504,1.125-1.125,1.125S9.875,16.621,9.875,16s0.504-1.125,1.125-1.125S12.125,15.379,12.125,16z   M8,14.875c-0.621,0-1.125,0.504-1.125,1.125S7.379,17.125,8,17.125S9.125,16.621,9.125,16S8.621,14.875,8,14.875z M5,14.875  c-0.621,0-1.125,0.504-1.125,1.125S4.379,17.125,5,17.125S6.125,16.621,6.125,16S5.621,14.875,5,14.875z M29,15.5v3  c0,0.276-0.224,0.5-0.5,0.5h-5c-0.276,0-0.5-0.224-0.5-0.5v-3c0-0.276,0.224-0.5,0.5-0.5H24c0,0,0-0.563,0-1c0-1.104,0.896-2,2-2  s2,0.896,2,2v1h0.5C28.776,15,29,15.224,29,15.5z M25,15h2c0,0,0-0.447,0-1s-0.447-1-1-1s-1,0.447-1,1C25,14.333,25,15,25,15z   M28,16h-4v2h4V16z M14,14.875c-0.621,0-1.125,0.504-1.125,1.125s0.504,1.125,1.125,1.125s1.125-0.504,1.125-1.125  S14.621,14.875,14,14.875z M32,11.5v9c0,0.828-0.672,1.5-1.5,1.5h-29C0.671,22,0,21.328,0,20.5v-9C0,10.672,0.671,10,1.5,10h29  C31.328,10,32,10.672,32,11.5z M31,11.5c0-0.276-0.224-0.5-0.5-0.5h-29C1.224,11,1,11.224,1,11.5v9C1,20.776,1.224,21,1.5,21h29  c0.276,0,0.5-0.224,0.5-0.5V11.5z M20,14.875c-0.621,0-1.125,0.504-1.125,1.125s0.504,1.125,1.125,1.125s1.125-0.504,1.125-1.125  S20.621,14.875,20,14.875z M17,14.875c-0.621,0-1.125,0.504-1.125,1.125s0.504,1.125,1.125,1.125s1.125-0.504,1.125-1.125  S17.621,14.875,17,14.875z"></path>
</svg>