<svg xmlns="http://www.w3.org/2000/svg" xmlns:xlink="http://www.w3.org/1999/xlink" version="1.1"  x="0px" y="0px" width="32" height="32" viewBox="0 0 32 32" style="enable-background:new 0 0 32 32;" xml:space="preserve" viewbox="0 0 32 32">
<path d="M18,10h1v12h-1V10z M13,22h1V10h-1V22z M28,7v18c0,1.657-1.343,3-3,3H7c-1.657,0-3-1.343-3-3V7c0-1.657,1.343-3,3-3h18  C26.657,4,28,5.343,28,7z M27,7c0-1.104-0.896-2-2-2H7C5.896,5,5,5.896,5,7v18c0,1.104,0.896,2,2,2h18c1.104,0,2-0.896,2-2V7z"></path>
</svg>