<svg version="1.1"  xmlns="http://www.w3.org/2000/svg" xmlns:xlink="http://www.w3.org/1999/xlink" x="0px" y="0px" width="32" height="32" viewBox="0 0 32 32" style="enable-background:new 0 0 32 32;" xml:space="preserve" viewbox="0 0 32 32">
<path d="M28.311,12.345c-0.781,0.781-2.047,0.781-2.828,0L25.08,11.94l-4.902,6.455l1.303,1.301c1.172,1.172,1.172,3.072,0,4.242
	c-0.354,0.354-0.707,0.707-0.707,0.707l-6.356-6.354l-8.68,8.681C5.208,27.5,4.5,28,4,28c0-0.5,0.53-1.236,1.03-1.736l8.68-8.681
	l-6.372-6.372c0,0,0.354-0.353,0.708-0.707c1.171-1.172,3.071-1.172,4.242,0l1.302,1.302l6.477-4.92l-0.506-0.51
	c-0.781-0.781-0.781-2.047,0-2.828c0.781-0.781,2.047-0.781,2.828,0l5.924,5.97C29.093,10.299,29.091,11.564,28.311,12.345z"></path>
</svg>