<svg xmlns="http://www.w3.org/2000/svg" xmlns:xlink="http://www.w3.org/1999/xlink" version="1.1"  x="0px" y="0px" width="32" height="32" viewBox="0 0 32 32" style="enable-background:new 0 0 32 32;" xml:space="preserve" preserveAspectRatio="none" viewbox="0 0 32 32">

<path class="st0" d="M23,14v-4l-6,4v-4l-6,4V3H3v26h26V10L23,14z M23,28H9v-2h14V28z M23,25H9v-2h14V25z M23,22H9v-2h14V22z M28,28  h-4v-9H8v9H4V4h6v11.87l1.55-1.04L16,11.87v4l1.55-1.04L22,11.87v4l1.55-1.04L28,11.87V28z M6,6h2v2H6V6z M6,10h2v2H6V10z M6,14h2v2  H6V14z" style="fill-rule:evenodd;clip-rule:evenodd;;"></path>
</svg>