<svg xmlns="http://www.w3.org/2000/svg" xmlns:xlink="http://www.w3.org/1999/xlink" version="1.1"  x="0px" y="0px" width="32" height="32" viewBox="0 0 32 32" style="enable-background:new 0 0 32 32;" xml:space="preserve" preserveAspectRatio="none" viewbox="0 0 32 32">

<path class="st0" d="M12,13c2.761,0,5-2.239,5-5s-2.239-5-5-5S7,5.239,7,8S9.239,13,12,13z M12,4c2.206,0,4,1.794,4,4s-1.794,4-4,4  s-4-1.794-4-4S9.794,4,12,4z M27,18h-6.8c-1.63-4.4-5.2-5-5.2-5l-3,3l-3-3c0,0-6,1-6,10h11c0,1.441,0,3.055,0,4c0,2,2,2,2,2h11  c2,0,2-2,2-2v-7C29,18,27,18,27,18z M14,20c0,0,0,0.857,0,2H4.03c0.32-5.82,3.47-7.46,4.67-7.88l2.59,2.59l0.71,0.7l0.71-0.7  l2.59-2.59c0.86,0.3,2.72,1.24,3.82,3.88H16C14,18,14,20,14,20z M28,26.988C27.988,27.45,27.806,28,27,28H16.012  C15.55,27.988,15,27.806,15,27v-6.988C15.012,19.55,15.195,19,16,19h10.992C27.453,19.013,28,19.197,28,20V26.988z M20,20h-2  c-2,0-2,2-2,2v3c0,2,2,2,2,2h2c2,0,2-2,2-2v-3C22,20,20,20,20,20z M21,24.988C20.988,25.45,20.806,26,20,26h-1.988  C17.55,25.988,17,25.806,17,25v-2.988C17.012,21.55,17.194,21,18,21h1.992C20.453,21.013,21,21.197,21,22V24.988z M23,22h4v1h-4V22z   M23,24h4v1h-4V24z" style="fill-rule:evenodd;clip-rule:evenodd;;"></path>
</svg>