<svg xmlns="http://www.w3.org/2000/svg" xmlns:xlink="http://www.w3.org/1999/xlink" version="1.1"  x="0px" y="0px" width="32" height="32" viewBox="0 0 24 24" style="enable-background:new 0 0 24 24;" xml:space="preserve" viewbox="0 0 32 32">
<path id="2635350898__x3C_Trazado_x5F_compuesto_x3E__rel" d="M16,15v4h-4v-4H8v4H4v1c0,0,0,2,2,2s12,0,12,0s2,0,2-2v-5H16z M18,2C18,2,8,2,6,2  S4,4,4,4v11h4v-4h4v4h4v-4h4V4C20,2,18,2,18,2z M17,9H7C6.45,9,6,8.55,6,8s0.45-1,1-1h10c0.55,0,1,0.45,1,1S17.55,9,17,9z"></path>
</svg>