<svg xmlns="http://www.w3.org/2000/svg" xmlns:xlink="http://www.w3.org/1999/xlink" version="1.1"  x="0px" y="0px" width="32" height="32" viewBox="0 0 32 32" style="enable-background:new 0 0 32 32;" xml:space="preserve" viewbox="0 0 32 32">
<path d="M26.707,24.293c-2.605-2.605-3.643-8.594-4.141-11.472l-0.086-0.5c-0.455-2.574-1.434-5.479-4.852-6.168  C17.861,5.827,18,5.43,18,5c0-1.104-0.896-2-2-2c-1.104,0-2,0.896-2,2c0,0.43,0.139,0.827,0.37,1.153  c-3.417,0.689-4.396,3.595-4.85,6.168l-0.087,0.5c-0.498,2.878-1.534,8.865-4.14,11.472c-0.286,0.286-0.372,0.716-0.217,1.09  C5.231,25.757,5.595,26,6,26h7.184c0.413,1.163,1.512,2,2.816,2c1.305,0,2.402-0.837,2.816-2H26c0.404,0,0.77-0.243,0.924-0.617  S26.993,24.579,26.707,24.293z M16,4c0.553,0,1,0.447,1,1s-0.447,1-1,1c-0.552,0-1-0.447-1-1S15.448,4,16,4z M16,27  c-0.738,0-1.376-0.404-1.723-1h3.446C17.376,26.596,16.738,27,16,27z M6,25c3-3,4.028-9.799,4.505-12.505  C11.032,9.507,12.134,7,16,7s4.968,2.507,5.495,5.495C21.973,15.201,23,22,26,25H6z"></path>
</svg>