<svg version="1.1"  xmlns="http://www.w3.org/2000/svg" xmlns:xlink="http://www.w3.org/1999/xlink" x="0px" y="0px" width="32" height="32" viewBox="0 0 32 32" style="enable-background:new 0 0 32 32;" xml:space="preserve" viewbox="0 0 32 32">
<path d="M23.26,22.55C24.96,20.69,26,18.22,26,15.5C26,9.7,21.3,5,15.5,5C9.71,5,5.01,9.7,5.01,15.5c0,5.79,4.7,10.49,10.49,10.49
	c2.72,0,5.19-1.04,7.05-2.73l5.62,5.61l0.7-0.7L23.26,22.55z M16,24.99V22h-1v2.99c-4.84-0.25-8.74-4.15-8.99-8.99H9v-1H6.01
	c0.25-4.85,4.15-8.74,8.99-8.99V9h1V6.01c4.85,0.25,8.74,4.14,8.99,8.99H22v1h2.99C24.74,20.84,20.85,24.74,16,24.99z M16,15h4v1h-5
	v-6h1V15z"></path>
</svg>