<svg xmlns="http://www.w3.org/2000/svg" xmlns:xlink="http://www.w3.org/1999/xlink" version="1.1"  x="0px" y="0px" width="32" height="32" viewBox="0 0 40 40" enable-background="new 0 0 40 40" xml:space="preserve" preserveAspectRatio="none" viewbox="0 0 32 32">
<g id="55851712_Shape_5_xA0_Clipping_Path_1_">
	<g>
		<path d="M22,10H11v4h11V10z M22,22H11v4h11V22z M34,13.375L27.197,2.701c0.103,1.196-0.843,2.79-2.072,3.986L34,13.375z M11,32h11    v-4H11V32z M22,16H11v4h11V16z M31,34h-7h-2H9V8h13h2h0.375L23,7c3-3,4-5,1-5H6v36h28V15l-3-2.182V34z M29,11.364L27.125,10H24v4    h5V11.364z M29,22h-5v4h5V22z M24,32h5v-4h-5V32z M29,16h-5v4h5V16z"></path>
	</g>
</g>
</svg>