<svg xmlns="http://www.w3.org/2000/svg" xmlns:xlink="http://www.w3.org/1999/xlink" version="1.1"  x="0px" y="0px" width="32" height="32" viewBox="0 0 32 32" style="enable-background:new 0 0 32 32;" xml:space="preserve" preserveAspectRatio="none" viewbox="0 0 32 32">
<path d="M14,15c3.31,0,6-2.69,6-6s-2.69-6-6-6c-3.31,0-6,2.69-6,6S10.69,15,14,15z M14,4c2.76,0,5,2.24,5,5s-2.24,5-5,5s-5-2.24-5-5  S11.24,4,14,4z M29.22,14.37l-0.71-0.7l-0.7,0.7l-1.75,1.74L25.47,16l-0.109-0.59l1.739-1.74l0.71-0.71l-0.71-0.71  c-1.569-1.57-3.819-0.42-5.279,1.03c-1.44,1.45-1.33,2.86-0.94,3.77l-0.8,0.8c-1-0.67-2.12-1.18-3.32-1.489L14,19.12l-2.76-2.76  C6.5,17.59,3,21.88,3,27h9.16l0.09,0.1l0.71,0.71l0.7-0.71l1.75-1.739L16,25.47l0.11,0.59l-1.74,1.75l-0.71,0.7l0.71,0.71  c1.33,1.33,3.3,0.94,5.28-1.029c1.439-1.45,1.33-2.86,0.939-3.771l3.83-3.83c0.91,0.391,2.32,0.5,3.771-0.939  C30.16,17.67,30.55,15.7,29.22,14.37z M11.59,26H4.05c0.4-4.02,3.19-7.34,6.92-8.53L14,20.5l3.03-3.03  c0.83,0.261,1.609,0.63,2.33,1.101l-2.311,2.31c-0.91-0.39-2.32-0.5-3.77,0.95C12.14,22.97,11.19,24.59,11.59,26z M27.48,18.94  c-1.801,1.8-3.211,0.38-3.211,0.38L19.32,24.27c0,0,1.42,1.41-0.38,3.211c-0.33,0.329-2.45,2.449-3.86,1.029l2.12-2.12l-0.351-1.77  l-1.77-0.351l-2.12,2.12c-1.42-1.409,0.86-3.689,1.03-3.859c1.8-1.79,3.21-0.38,3.21-0.38l4.95-4.95c0,0-1.41-1.41,0.38-3.21  c0.17-0.17,2.45-2.45,3.859-1.03l-2.12,2.12l0.351,1.77l1.77,0.351l2.12-2.12C29.93,16.49,27.81,18.61,27.48,18.94z"></path>
</svg>