<svg xmlns="http://www.w3.org/2000/svg" xmlns:xlink="http://www.w3.org/1999/xlink" version="1.1"  x="0px" y="0px" width="32" height="32" viewBox="0 0 32 32" style="enable-background:new 0 0 32 32;" xml:space="preserve" preserveAspectRatio="none" viewbox="0 0 32 32">
<path d="M30.707,11.392C30.443,11.063,30.044,11,29.609,11H26V8.5C26,7.672,25.328,7,24.5,7H11.994l-0.208-0.112l-1.552-2.329  C10.002,4.21,9.613,4,9.194,4H3.5C2.671,4,2,4.672,2,5.5v20C2,26.328,2.671,27,3.5,27h22.891c0.743,0,1.426-0.645,1.587-1.375  l2.996-13.095C31.069,12.099,30.973,11.723,30.707,11.392z M3.5,26C3.224,26,3,25.776,3,25.5v-20C3,5.224,3.224,5,3.5,5h5.694  l0.208,0.113l1.552,2.329C11.186,7.792,11.575,8,11.994,8H24.5C24.776,8,25,8.224,25,8.5V11H8.609c-0.742,0-1.424,0.457-1.588,1.188  L4.027,25.095C3.96,25.391,3.992,25.716,4.1,26H3.5z M29.95,12.5l-2.994,13c-0.063,0.276-0.336,0.5-0.612,0.5h-21  c-0.276,0-0.45-0.224-0.388-0.5l2.994-13C8.012,12.224,8.286,12,8.563,12H18v8.259l-3.036-3.036l-0.707,0.707l4.243,4.243  l4.242-4.243l-0.707-0.707L19,20.259V12h10.563C29.839,12,30.013,12.224,29.95,12.5z"></path>
</svg>