<svg xmlns="http://www.w3.org/2000/svg" xmlns:xlink="http://www.w3.org/1999/xlink" version="1.1"  x="0px" y="0px" width="32" height="32" viewBox="0 0 32 32" style="enable-background:new 0 0 32 32;" xml:space="preserve" viewbox="0 0 32 32">
<path d="M17.089,17.257l-0.005-0.005L15.5,18.836l-1.584-1.584l-0.005,0.005C11.649,18,10,20.289,10,23h11  C21,20.289,19.352,18.001,17.089,17.257z M11.091,22c0.293-1.604,1.284-2.914,2.599-3.561l1.81,1.811l1.811-1.811  c1.314,0.646,2.306,1.957,2.599,3.561H11.091z M27,4.5C27,3.672,26.328,3,25.5,3h-18C6.671,3,6,3.672,6,4.5v23  C6,28.328,6.671,29,7.5,29h18c0.828,0,1.5-0.672,1.5-1.5v-6c0-0.386-0.15-0.734-0.39-1c0.239-0.266,0.39-0.614,0.39-1v-7  c0-0.386-0.15-0.734-0.39-1c0.239-0.266,0.39-0.614,0.39-1V4.5z M26,27.5c0,0.276-0.224,0.5-0.5,0.5h-1.592  C23.964,27.843,24,27.676,24,27.5V21h1.5c0.276,0,0.5,0.224,0.5,0.5V27.5z M26,19.5c0,0.276-0.224,0.5-0.5,0.5H24v-7.5  c0-0.276,0.224-0.5,0.5-0.5h1c0.276,0,0.5,0.224,0.5,0.5V19.5z M26,10.5c0,0.276-0.224,0.5-0.5,0.5h-1c-0.828,0-1.5,0.672-1.5,1.5  v15c0,0.276-0.224,0.5-0.5,0.5h-15C7.224,28,7,27.776,7,27.5v-23C7,4.224,7.224,4,7.5,4h18C25.776,4,26,4.224,26,4.5  C26,4.5,26,9.5,26,10.5z M15.5,17c1.933,0,3.5-1.567,3.5-3.5S17.433,10,15.5,10c-1.933,0-3.5,1.567-3.5,3.5S13.567,17,15.5,17z   M15.5,11c1.381,0,2.5,1.119,2.5,2.5S16.881,16,15.5,16S13,14.881,13,13.5S14.119,11,15.5,11z"></path>
</svg>