<svg version="1.1"  xmlns="http://www.w3.org/2000/svg" xmlns:xlink="http://www.w3.org/1999/xlink" x="0px" y="0px" width="32" height="32" viewBox="0 0 32 32" style="enable-background:new 0 0 32 32;" xml:space="preserve" viewbox="0 0 32 32">
<path d="M23,4H9C6.8,4,6,5.79,6,7v18c0,2.2,1.79,3,3,3h14c2.2,0,3-1.79,3-3V7C26,4.8,24.21,4,23,4z M23,27c-2,0-14,0-14,0s-2,0-2-2
	h18C25,25,25,27,23,27z M25,24H7V8h3v3.74l4.63,3.7L10,18.22V22h1v-3.22l5.37-3.22L11,11.26V8h14V24z M7,7c0,0,0-2,2-2s14,0,14,0
	s2,0,2,2H7z"></path>
</svg>