<svg xmlns="http://www.w3.org/2000/svg" xmlns:xlink="http://www.w3.org/1999/xlink" version="1.1"  x="0px" y="0px" width="32" height="32" viewBox="0 0 32 32" style="enable-background:new 0 0 32 32;" xml:space="preserve" preserveAspectRatio="none" viewbox="0 0 32 32">
<path d="M24.5,13H21V9.5C21,6.463,18.537,4,15.5,4C12.462,4,10,6.463,10,9.5V13H6.5C6.224,13,6,13.224,6,13.5v12  C6,25.776,6.224,26,6.5,26h18c0.276,0,0.5-0.224,0.5-0.5v-12C25,13.224,24.776,13,24.5,13z M11,9.5C11,7.015,13.015,5,15.5,5  S20,7.015,20,9.5V13h-9V9.5z M24.001,24.994H6.999v-10.99h17.002V24.994z M17.996,20.002h-4.992v-1.003h4.992V20.002z"></path>
</svg>