<svg version="1.1"  xmlns="http://www.w3.org/2000/svg" xmlns:xlink="http://www.w3.org/1999/xlink" x="0px" y="0px" width="32" height="32" viewBox="0 0 32 32" style="enable-background:new 0 0 32 32;" xml:space="preserve" preserveAspectRatio="none" viewbox="0 0 32 32">
<path d="M21.01,17.69c-0.608,0-1.125,0.097-1.506,0.201l-4.766-4.767c0.327-1.183,0.582-3.661-1.859-6.101
	c-1.17-1.17-2.405-1.764-3.671-1.764c-1.59,0-2.584,0.948-2.693,1.057L5.807,7.023L6.515,7.73l2.535,2.535l0,1.414H7.636
	L5.101,9.145L4.394,8.438L3.687,9.145C3.61,9.221,2.936,9.922,2.706,11.069c-0.209,1.046-0.086,2.665,1.688,4.438
	c1.504,1.505,3.54,1.82,4.982,1.82c0.408,0,0.76-0.025,1.027-0.054l4.952,4.952c-0.127,1.194-0.187,4.057,1.767,6.01
	c1.17,1.17,2.405,1.764,3.671,1.764c1.591,0,2.585-0.948,2.693-1.057l0.707-0.707l-0.707-0.707l-2.536-2.535V23.58h1.414
	l2.536,2.535l0.707,0.707l0.707-0.707c0.076-0.076,0.751-0.777,0.98-1.925c0.21-1.046,0.087-2.665-1.688-4.439
	C23.903,18.048,22.167,17.69,21.01,17.69z M25.606,25.408l-2.829-2.828h-2.828v2.828l2.829,2.828c0,0-0.764,0.764-1.986,0.764
	c-0.814,0-1.833-0.34-2.964-1.471c-2.121-2.121-1.414-5.657-1.414-5.657l-5.657-5.657c0,0-0.566,0.113-1.382,0.113
	c-1.222,0-3.003-0.255-4.275-1.527c-2.828-2.828-0.707-4.949-0.707-4.949l2.828,2.828h2.829l0-2.828L7.222,7.023
	c0,0,0.764-0.764,1.986-0.764c0.814,0,1.833,0.339,2.964,1.471c2.829,2.828,1.414,5.656,1.414,5.656l5.657,5.657
	c0,0,0.707-0.354,1.768-0.354c1.062,0,2.476,0.354,3.89,1.768C27.729,23.287,25.606,25.408,25.606,25.408z M26.109,5.188
	l0.781,0.625l-4.35,5.436l-2.395-2.395l0.707-0.707l1.605,1.605L26.109,5.188z M23.5,2C19.91,2,17,4.91,17,8.5s2.91,6.5,6.5,6.5
	S30,12.09,30,8.5S27.09,2,23.5,2z M23.5,14c-3.032,0-5.5-2.467-5.5-5.5S20.468,3,23.5,3S29,5.467,29,8.5S26.532,14,23.5,14z"></path>
</svg>