<svg xmlns="http://www.w3.org/2000/svg" xmlns:xlink="http://www.w3.org/1999/xlink" version="1.1"  x="0px" y="0px" width="32" height="32" viewBox="0 0 32 32" style="enable-background:new 0 0 32 32;" xml:space="preserve" preserveAspectRatio="none" viewbox="0 0 32 32">
<path d="M28,21V11H14v10h6v2h-3v1h8v-1h-3v-2H28z M15,20v-8h12v8H15z M4,24h8V8H4V24z M5,9h6v14H5V9z M6,10h4v1H6V10z M6,12h4v1H6  V12z M9.5,20c0,0.828-0.672,1.5-1.5,1.5S6.5,20.828,6.5,20s0.672-1.5,1.5-1.5S9.5,19.172,9.5,20z"></path>
</svg>