<svg version="1.1"  xmlns="http://www.w3.org/2000/svg" xmlns:xlink="http://www.w3.org/1999/xlink" x="0px" y="0px" width="32" height="32" viewBox="0 0 32 32" style="enable-background:new 0 0 32 32;" xml:space="preserve" viewbox="0 0 32 32">
<path d="M24,4h1V3H7v1h1c0,5.849,2.385,8.078,5.405,10.9c0.379,0.354,0.767,0.717,1.166,1.1c-0.398,0.383-0.786,0.745-1.166,1.1
	C10.386,19.922,8,22.151,8,28H7v1h18v-1h-1c0-5.85-2.391-8.082-5.416-10.908c-0.38-0.355-0.769-0.718-1.167-1.101
	c0.394-0.376,0.776-0.731,1.151-1.08C21.604,12.089,24,9.859,24,4z M22.729,25.01l-6.709-3.728l-6.754,3.753
	c0.811-4.123,3.427-5.729,6.732-9.033l-0.013-0.013l0,0L16,16l-0.002,0.002C19.303,19.301,21.913,20.909,22.729,25.01z
	 M16.021,11.975L9.671,8.447C9.243,7.245,9,5.823,9,4h14c0,1.838-0.247,3.269-0.683,4.477L16.021,11.975z"></path>
</svg>