<svg xmlns="http://www.w3.org/2000/svg" xmlns:xlink="http://www.w3.org/1999/xlink" version="1.1"  x="0px" y="0px" width="32" height="32" viewBox="0 0 24 24" style="enable-background:new 0 0 24 24;" xml:space="preserve" viewbox="0 0 32 32">
<path d="M3,16h18v2H3V16z M3,20h18v2H3V20z"></path>
<path d="M12,2C8.13,2,5,4.69,5,8c0,1.12,0.36,2.17,0.98,3.06L5,14l3.09-1.03C9.2,13.62,10.54,14,12,14c3.87,0,7-2.69,7-6  S15.87,2,12,2z M12,12c-2.76,0-5-1.79-5-4s2.24-4,5-4s5,1.79,5,4S14.76,12,12,12z"></path>
</svg>