<svg xmlns="http://www.w3.org/2000/svg" xmlns:xlink="http://www.w3.org/1999/xlink" version="1.1"  x="0px" y="0px" width="32" height="32" viewBox="0 0 32 32" style="enable-background:new 0 0 32 32;" xml:space="preserve" preserveAspectRatio="none" viewbox="0 0 32 32">
<path d="M14.992,14.001c-1.108,0-2.007,0.896-2.007,1.999s0.898,1.999,2.007,1.999s2.007-0.896,2.007-1.999  S16.101,14.001,14.992,14.001z M15.008,16.999c-0.547,0-0.991-0.447-0.991-0.999s0.444-0.999,0.991-0.999s0.991,0.447,0.991,0.999  S15.555,16.999,15.008,16.999z M29.682,9.427c0.2-0.256,0.325-0.574,0.325-0.924c0-0.83-0.673-1.503-1.504-1.503  C27.673,7,27,7.673,27,8.503c0,0.831,0.673,1.504,1.503,1.504l0.243-0.024c0.826,1.674,1.218,3.75,1.218,6.018  c0,6-3.964,10-6.464,10c-0.196,0-0.549-0.24-0.981-0.654C25.249,23.146,27,19.78,27,16c0-6.628-5.372-12-12-12C8.373,4,3,9.372,3,16  s5.373,12,12,12c2.435,0,4.696-0.729,6.588-1.976C22.276,26.639,22.907,27,23.375,27c4.125,0,7.688-4.891,7.688-11  C31.063,13.533,30.611,11.265,29.682,9.427z M15,26.994C8.928,26.994,4.006,22.072,4.006,16S8.928,5.006,15,5.006  c6.072,0,10.994,4.922,10.994,10.994S21.072,26.994,15,26.994z"></path>
</svg>