<svg version="1.1"  xmlns="http://www.w3.org/2000/svg" xmlns:xlink="http://www.w3.org/1999/xlink" x="0px" y="0px" width="32" height="32" viewBox="0 0 32 32" style="enable-background:new 0 0 32 32;" xml:space="preserve" viewbox="0 0 32 32">
<style type="text/css">

	.st0{fill-rule:evenodd;clip-rule:evenodd;}

</style>
<path class="st0" d="M4,6v20h24V6H4z M27,25H5V7h22V25z M26,8H6v16h20V8z M25,23H7V9h18V23z M13,21h1v-2h4v2h1v-2h2v-1h-2v-4h2v-1
	h-2v-2h-1v2h-4v-2h-1v2h-2v1h2v4h-2v1h2V21z M14,14h4v4h-4V14z"></path>
</svg>