<svg version="1.1"  xmlns="http://www.w3.org/2000/svg" xmlns:xlink="http://www.w3.org/1999/xlink" x="0px" y="0px" width="32" height="32" viewBox="0 0 32 32" style="enable-background:new 0 0 32 32;" xml:space="preserve" preserveAspectRatio="none" viewbox="0 0 32 32">
<style type="text/css">

	.st0{fill-rule:evenodd;clip-rule:evenodd;}

</style>
<path class="st0" d="M27,22.5c0,1.21-0.73,3.5-3.5,3.5S20,23.71,20,22.5V8h-7v11c0,0.07-0.09,7-7.5,7C5.22,26,5,25.78,5,25.5
	S5.22,25,5.5,25c6.43,0,6.5-5.75,6.5-6V8H8V7h17v1h-4v14.5c0,0.25,0.09,2.5,2.5,2.5c2.47,0,2.5-2.4,2.5-2.5c0-0.28,0.22-0.5,0.5-0.5
	S27,22.22,27,22.5z"></path>
</svg>