<svg version="1.1"  xmlns="http://www.w3.org/2000/svg" xmlns:xlink="http://www.w3.org/1999/xlink" x="0px" y="0px" width="32" height="32" viewBox="0 0 48 48" enable-background="new 0 0 48 48" xml:space="preserve" preserveAspectRatio="none" viewbox="0 0 32 32">
<path d="M26.828,24l10.586-10.586c0.781-0.781,0.781-2.047,0-2.828c-0.781-0.781-2.047-0.781-2.828,0L24,21.171L13.414,10.586
	c-0.78-0.781-2.048-0.781-2.828,0c-0.781,0.781-0.781,2.047,0,2.828L21.171,24L10.586,34.586c-0.781,0.781-0.781,2.047,0,2.828
	c0.78,0.781,2.048,0.781,2.828,0L24,26.828l10.586,10.586C34.977,37.805,35.488,38,36,38s1.023-0.195,1.414-0.586
	c0.781-0.781,0.781-2.047,0-2.828L26.828,24z"></path>
</svg>