<svg xmlns="http://www.w3.org/2000/svg" xmlns:xlink="http://www.w3.org/1999/xlink" version="1.1"  x="0px" y="0px" width="32" height="32" viewBox="0 0 32 32" style="enable-background:new 0 0 32 32;" xml:space="preserve" preserveAspectRatio="none" viewbox="0 0 32 32">
<path d="M15.5,4C8.6,4,3,9.6,3,16.5C3,23.4,8.6,29,15.5,29C22.4,29,28,23.4,28,16.5C28,9.6,22.4,4,15.5,4z M4,16.5  C4,10.16,9.16,5,15.5,5c2.99,0,5.72,1.15,7.77,3.03L7.03,24.27C5.15,22.22,4,19.49,4,16.5z M15.5,28c-2.99,0-5.72-1.15-7.77-3.03  L23.97,8.73C25.85,10.78,27,13.51,27,16.5C27,22.84,21.84,28,15.5,28z"></path>
</svg>