<svg xmlns="http://www.w3.org/2000/svg" xmlns:xlink="http://www.w3.org/1999/xlink" version="1.1"  x="0px" y="0px" width="32" height="32" viewBox="0 0 32 32" style="enable-background:new 0 0 32 32;" xml:space="preserve" preserveAspectRatio="none" viewbox="0 0 32 32">
<path d="M12.094,15c0,0.604-0.49,1.094-1.094,1.094S9.906,15.604,9.906,15s0.49-1.094,1.094-1.094S12.094,14.396,12.094,15z   M16,13.906c-0.604,0-1.094,0.489-1.094,1.094s0.49,1.094,1.094,1.094c0.604,0,1.094-0.489,1.094-1.094S16.604,13.906,16,13.906z   M21,13.906c-0.604,0-1.094,0.489-1.094,1.094s0.489,1.094,1.094,1.094s1.094-0.489,1.094-1.094S21.604,13.906,21,13.906z   M28.994,14.501c0,5.802-5.817,10.505-12.994,10.505c-0.619,0-1.224-0.047-1.819-0.115l-4.173,4.514l-0.023-5.597  c-4.146-1.755-6.979-5.261-6.979-9.307C3.006,8.699,8.824,3.996,16,3.996C23.177,3.996,28.994,8.699,28.994,14.501z M28.005,14.501  c0-5.246-5.375-9.499-12.005-9.499S3.996,9.255,3.996,14.501c0,3.831,2.873,7.125,7.001,8.627l0,3.664l2.805-2.958  C14.516,23.938,15.249,24,16,24C22.63,24,28.005,19.747,28.005,14.501z"></path>
</svg>