<svg xmlns="http://www.w3.org/2000/svg" xmlns:xlink="http://www.w3.org/1999/xlink" version="1.1"  x="0px" y="0px" width="32" height="32" viewBox="0 0 32 32" style="enable-background:new 0 0 32 32;" xml:space="preserve" preserveAspectRatio="none" viewbox="0 0 32 32">
<path d="M15,23h1v1h-1V23z M28,15.5C28,22.403,22.403,28,15.5,28C8.596,28,3,22.403,3,15.5S8.596,3,15.5,3  C22.403,3,28,8.597,28,15.5z M26.995,15.5c0-6.349-5.146-11.495-11.495-11.495S4.005,9.151,4.005,15.5S9.151,26.995,15.5,26.995  S26.995,21.849,26.995,15.5z M16,7c-2.762,0-5,2.238-5,5h1c0-2.205,1.794-4,4-4c2.206,0,4,1.795,4,4c0,1.591-0.942,3.03-2.399,3.667  C16.813,16.011,15,16.719,15,18.5V21h1c0,0,0-2,0-2.5c0-1,0.768-1.379,2-1.916c1.766-0.771,3-2.534,3-4.584C21,9.238,18.762,7,16,7z  "></path>
</svg>