<svg xmlns="http://www.w3.org/2000/svg" xmlns:xlink="http://www.w3.org/1999/xlink" version="1.1"  x="0px" y="0px" width="32" height="32" viewBox="0 0 32 32" style="enable-background:new 0 0 32 32;" xml:space="preserve" viewbox="0 0 32 32">

<path class="st0" d="M15.5,10C10.25,10,6,14.25,6,19.5s4.25,9.5,9.5,9.5s9.5-4.25,9.5-9.5S20.75,10,15.5,10z M15.5,28  C10.81,28,7,24.19,7,19.5c0-4.69,3.81-8.5,8.5-8.5c4.69,0,8.5,3.81,8.5,8.5C24,24.19,20.19,28,15.5,28z M16,19h3v1h-4v-7h1V19z   M27,5v5h-5V9h3.5c-1.17-1.35-4.2-4-10-4C7.97,5,6.04,9.5,5.96,9.69L5.04,9.31C5.12,9.1,7.26,4,15.5,4c5.8,0,9.05,2.52,10.5,4.07V5  H27z M15,22h1v1h-1V22z M18,22h1v1h-1V22z M12,22h1v1h-1V22z" style="fill-rule:evenodd;clip-rule:evenodd;;"></path>
</svg>