<svg xmlns="http://www.w3.org/2000/svg" xmlns:xlink="http://www.w3.org/1999/xlink" version="1.1"  x="0px" y="0px" width="32" height="32" viewBox="0 0 32 32" style="enable-background:new 0 0 32 32;" xml:space="preserve" viewbox="0 0 32 32">
<path d="M21.513,19.013c-1.381,0-2.5,1.119-2.5,2.5s1.119,2.5,2.5,2.5s2.5-1.119,2.5-2.5S22.894,19.013,21.513,19.013z M21.5,23  c-0.828,0-1.5-0.672-1.5-1.5s0.672-1.5,1.5-1.5s1.5,0.672,1.5,1.5S22.328,23,21.5,23z M24,14.435V4.5C24,3.672,23.328,3,22.5,3h-16  C5.671,3,5,3.672,5,4.5v21C5,26.328,5.671,27,6.5,27h9.911c1.338,1.247,3.126,2.016,5.097,2.016c4.138,0,7.492-3.361,7.492-7.508  C29,18.238,26.91,15.465,24,14.435z M6.5,26C6.224,26,6,25.776,6,25.5v-21C6,4.224,6.224,4,6.5,4h16C22.776,4,23,4.224,23,4.5v9.65  C22.518,14.052,22.019,14,21.508,14c-4.138,0-7.492,3.361-7.492,7.508c0,1.687,0.562,3.238,1.5,4.492H6.5z M21.5,28  c-3.59,0-6.5-2.91-6.5-6.5s2.91-6.5,6.5-6.5s6.5,2.91,6.5,6.5S25.09,28,21.5,28z"></path>
</svg>